# xmcd CD database file
#
# Track frame offsets:
#	150
#	24737
#	42257
#	65022
#	79310
#	100155
#	124392
#	141540
#	159812
#	184522
#
# Disc length: 2667 seconds
#
# Revision: 3
# Processed by: cddbd v1.5.2PL0 Copyright (c) Steve Scherf et al.
# Submitted via: CDex 1.70beta2
#
DISCID=890a690a
DTITLE=Claudio Baglioni - Solo
DYEAR=1977
DGENRE=Cantautori
TTITLE0=Gagarin (C.Baglioni)
TTITLE1=Duecento Lire Di Castagne (C.Baglioni)
TTITLE2=Solo (C.Baglioni)
TTITLE3=Romano Male Malissimo (C.Baglioni)
TTITLE4=Gesù  Caro Fratello (C.Baglioni-Coggio-Oremus)
TTITLE5=Nel Sole, Nel Sale , Nel Sud (C.Baglioni)
TTITLE6=Strip-Tease (C.Baglioni)
TTITLE7=Il Pivot (C.Baglioni)
TTITLE8=Quante Volte (C.Baglioni)
TTITLE9=Puoi?
EXTD=YEAR: 1977
EXTT0=
EXTT1=
EXTT2=
EXTT3=
EXTT4=
EXTT5=
EXTT6=
EXTT7=
EXTT8=
EXTT9=
PLAYORDER=
